<?xml version="1.0" encoding="UTF-8" standalone="no"?>
<svg
   width="1200"
   height="1200"
   viewBox="0 0 1200 1200"
   version="1.1"
   id="svg28"
   sodipodi:docname="AI4Radiology_SSPH_full_CN_aligned_editable.svg"
   xmlns:inkscape="http://www.inkscape.org/namespaces/inkscape"
   xmlns:sodipodi="http://sodipodi.sourceforge.net/DTD/sodipodi-0.dtd"
   xmlns="http://www.w3.org/2000/svg"
   xmlns:svg="http://www.w3.org/2000/svg">
  <sodipodi:namedview
     id="namedview28"
     pagecolor="#ffffff"
     bordercolor="#000000"
     borderopacity="0.25"
     inkscape:showpageshadow="2"
     inkscape:pageopacity="0.0"
     inkscape:pagecheckerboard="0"
     inkscape:deskcolor="#d1d1d1" />
  <title
     id="title1">AI4Radiology SSPH Logo</title>
  <desc
     id="desc1">Aligned vector logo for Shanghai Sixth People's Hospital Radiology Interventional Department Medical Imaging AI Lab and Shanghai Jiao Tong University Institute of Imaging Medicine AI Team.</desc>
  <defs
     id="defs1">
    <style
       id="style1"><![CDATA[
      .latin { font-family: "Inter Display", "Inter", "Arial", sans-serif; font-weight: 800; }
      .latin-medium { font-family: "Inter Display", "Inter", "Arial", sans-serif; font-weight: 700; }
      .cn { font-family: "Noto Sans CJK SC", "Source Han Sans SC", "Microsoft YaHei", "PingFang SC", sans-serif; font-weight: 600; }
      .fine { fill: none; stroke: #A6B4C7; stroke-width: 4.1; stroke-linecap: round; stroke-linejoin: round; opacity: .72; }
      .fine2 { fill: none; stroke: #A6B4C7; stroke-width: 3.2; stroke-linecap: round; stroke-linejoin: round; opacity: .62; }
    ]]></style>
    <clipPath
       id="iconClip">
      <circle
         cx="600"
         cy="320"
         r="200"
         id="circle1" />
    </clipPath>
  </defs>
  <!-- Symbol: all geometry centered on x=600 -->
  <g
     id="symbol"
     transform="translate(0,0)">
    <!-- outer diagnostic ring: four calibrated arcs with equal stroke and gap -->
    <path
       d="M 386.76 274.68 A 218.00 218.00 0 0 1 558.40 106.01"
       fill="none"
       stroke="#009B8F"
       stroke-width="13"
       stroke-linecap="round"
       id="path1" />
    <path
       d="M 641.60 106.01 A 218.00 218.00 0 0 1 813.24 274.68"
       fill="none"
       stroke="#00529B"
       stroke-width="13"
       stroke-linecap="round"
       id="path2" />
    <path
       d="M 813.24 365.32 A 218.00 218.00 0 0 1 641.60 533.99"
       fill="none"
       stroke="#00529B"
       stroke-width="13"
       stroke-linecap="round"
       id="path3" />
    <path
       d="M 558.40 533.99 A 218.00 218.00 0 0 1 386.76 365.32"
       fill="none"
       stroke="#009B8F"
       stroke-width="13"
       stroke-linecap="round"
       id="path4" />
    <g
       clip-path="url(#iconClip)"
       id="g16">
      <!-- exact center divider -->
      <path
         d="M 600 128 L 600 512"
         stroke="#A6B4C7"
         stroke-width="3.4"
         opacity=".55"
         stroke-linecap="round"
         id="path5" />
      <!-- simplified neuroimaging line art: left half brain -->
      <g
         id="brain"
         class="fine">
        <path
           d="M 545 184                  C 510 150, 458 165, 448 210                  C 408 213, 385 244, 390 284                  C 356 305, 351 355, 381 382                  C 371 427, 410 466, 456 459                  C 486 503, 556 482, 556 430                  C 587 405, 584 354, 548 333                  C 574 296, 566 225, 545 184 Z"
           id="path6" />
        <path
           d="M 448 210 C 462 244, 500 235, 509 263"
           id="path7" />
        <path
           d="M 390 284 C 429 276, 452 300, 456 333"
           id="path8" />
        <path
           d="M 381 382 C 420 372, 455 391, 467 425"
           id="path9" />
        <path
           d="M 456 459 C 465 426, 496 418, 530 434"
           id="path10" />
        <path
           d="M 545 184 C 536 225, 559 244, 588 245"
           id="path11" />
        <path
           d="M 509 263 C 545 271, 556 297, 548 333"
           id="path12" />
        <path
           d="M 456 333 C 493 331, 516 355, 514 392"
           id="path13" />
        <path
           d="M 467 425 C 500 416, 533 389, 552 359"
           id="path14" />
      </g>
      <!-- simplified musculoskeletal imaging line art: right half long bone -->
      <g
         id="bone"
         class="fine">
        <path
           d="M 746 160                  C 725 159, 715 176, 724 193                  C 732 209, 753 211, 762 196                  C 773 178, 796 180, 806 198                  C 821 226, 789 246, 762 232                  C 750 227, 738 232, 734 244                  L 734 397                  C 734 413, 743 422, 759 424                  C 785 429, 796 457, 777 476                  C 758 495, 729 485, 728 458                  C 727 437, 698 438, 695 458                  C 692 484, 660 491, 644 471                  C 628 450, 643 424, 670 423                  C 688 422, 697 413, 697 396                  L 697 244                  C 697 229, 688 225, 674 230                  C 646 239, 620 214, 637 188                  C 650 169, 673 168, 685 186                  C 697 205, 724 201, 724 178                  C 724 166, 732 160, 746 160 Z"
           id="path15" />
        <path
           d="M 715 250 L 715 392"
           class="fine2"
           id="path16" />
      </g>
    </g>
    <!-- letter mark -->
    <g
       id="text19"
       class="latin"
       style="font-weight:800;font-size:143px;font-family:'Inter Display', Inter, Arial, sans-serif;letter-spacing:-5;text-anchor:middle"
       aria-label="AI4R">
      <path
         style="fill:#00529b"
         d="m 440.68994,373 h 27.30127 l 6.354,-20.03955 h 36.93702 L 517.42676,373 h 28.06933 L 509.53662,268.96191 h -33.09668 z m 39.93945,-39.66016 1.88526,-6.0747 c 3.63086,-11.59082 6.98242,-22.97217 10.54346,-35.75 3.49121,12.77783 6.84277,24.15918 10.26416,35.75 l 1.88525,6.0747 z"
         id="path28" />
      <path
         style="fill:#009b8f"
         d="M 572.68506,268.96191 H 547.54834 V 373 h 25.13672 z"
         id="path29" />
      <path
         style="fill:#00529b"
         d="m 578.64746,351.70361 h 51.39063 V 373 h 23.60058 v -21.29639 h 12.63819 v -18.92236 h -12.63819 v -63.81934 h -30.79248 l -44.19873,63.60987 z m 51.39063,-18.92236 h -28.06934 v -0.13965 l 27.99951,-40.56787 h 0.0698 z"
         id="path30" />
      <path
         style="fill:#c9102e"
         d="m 672.30908,373 h 25.13672 v -34.56299 h 16.19922 L 730.6123,373 h 26.53321 l -19.96973,-39.66016 c 10.89258,-5.65576 17.24658,-15.85009 17.24658,-29.18652 0,-21.57568 -15.15185,-35.19141 -39.24121,-35.19141 h -42.87207 z m 25.13672,-54.32324 v -29.1167 h 15.98975 c 10.12451,0 16.40869,5.72558 16.40869,14.59326 0,8.79785 -6.28418,14.52344 -16.33887,14.52344 z"
         id="path31" />
    </g>
  </g>
  <!-- Full wordmark -->
  <g
     id="wordmark"
     transform="translate(0,0)">
    <g
       id="text24"
       class="latin"
       style="font-weight:800;font-size:96px;font-family:'Inter Display', Inter, Arial, sans-serif;letter-spacing:-3;text-anchor:middle"
       aria-label="AI4Radiology">
      <path
         style="fill:#00529b"
         d="m 309.14062,705 h 18.32813 l 4.26562,-13.45313 h 24.79688 L 360.65625,705 H 379.5 l -24.14063,-69.84375 h -22.21875 z m 26.8125,-26.625 1.26563,-4.07813 c 2.4375,-7.78125 4.6875,-15.42187 7.07812,-24 2.34375,8.57813 4.59375,16.21875 6.89063,24 l 1.26562,4.07813 z"
         id="path32" />
      <path
         style="fill:#009b8f"
         d="m 398.10937,635.15625 h -16.875 V 705 h 16.875 z"
         id="path33" />
      <path
         style="fill:#009b8f"
         d="m 402.46875,690.70312 h 34.5 V 705 h 15.84375 v -14.29688 h 8.48437 V 678 h -8.48437 v -42.84375 h -20.67188 l -29.67187,42.70312 z M 436.96875,678 H 418.125 v -0.0937 l 18.79687,-27.23438 h 0.0469 z"
         id="path34" />
      <path
         style="fill:#c9102e"
         d="m 465.70312,705 h 16.875 v -23.20313 h 10.875 L 504.84375,705 h 17.8125 L 509.25,678.375 c 7.3125,-3.79688 11.57812,-10.64063 11.57812,-19.59375 0,-14.48438 -10.17187,-23.625 -26.34375,-23.625 h -28.78125 z m 16.875,-36.46875 v -19.54688 h 10.73438 c 6.79687,0 11.01562,3.84375 11.01562,9.79688 0,5.90625 -4.21875,9.75 -10.96875,9.75 z"
         id="path35" />
      <path
         style="fill:#00529b"
         d="m 540.98437,705.84375 c 6.98438,0 11.4375,-2.4375 14.39063,-7.78125 h 0.1875 V 705 h 15.75 v -33.32813 c 0,-10.92187 -7.92188,-17.25 -22.3125,-17.25 -14.34375,0 -22.45313,6.375 -23.15625,17.10938 h 15 C 541.17187,668.15625 543.9375,666 548.4375,666 c 4.26562,0 6.89062,2.01562 6.89062,4.96875 v 0.23437 c 0,2.95313 -3.23437,3.65625 -12.09375,4.40625 -10.54687,0.84375 -19.21875,4.45313 -19.21875,15.5625 0,9.84375 7.07813,14.67188 16.96875,14.67188 z m 4.92188,-10.54688 c -3.9375,0 -6.60938,-1.82812 -6.60938,-4.875 0,-3.23437 3.09375,-5.01562 7.40625,-5.67187 3.98438,-0.65625 7.03125,-1.26563 8.76563,-2.0625 v 4.5 c 0,4.875 -4.17188,8.10937 -9.5625,8.10937 z m 50.76562,10.78125 c 6.51563,0 11.67188,-2.95312 14.25,-8.71875 h 0.0469 V 705 h 15.98437 v -69.84375 h -16.17187 v 27 h -0.0469 c -3.14062,-5.25 -7.78125,-7.73438 -14.20312,-7.73438 -12.5625,0 -21.28125,10.59375 -21.28125,25.73438 0,15.65625 8.4375,25.92187 21.42187,25.92187 z m 4.5,-12.89062 c -5.90625,0 -9.5625,-4.875 -9.5625,-13.03125 0,-8.0625 3.65625,-12.89063 9.5625,-12.89063 6.09375,0 10.26563,5.0625 10.26563,12.89063 0,7.92187 -4.17188,13.03125 -10.26563,13.03125 z M 632.95312,705 h 16.125 v -49.5 h -16.125 z m 8.01563,-54.32813 c 5.20312,0 8.90625,-3.42187 8.90625,-8.15625 0,-4.73437 -3.70313,-8.10937 -8.90625,-8.10937 -5.15625,0 -8.85938,3.375 -8.85938,8.10937 0,4.73438 3.70313,8.15625 8.85938,8.15625 z m 38.10937,55.45313 c 15.51563,0 26.01563,-10.17188 26.01563,-25.875 0,-15.60938 -10.5,-25.875 -26.01563,-25.875 -15.51562,0 -26.0625,10.26562 -26.0625,25.875 0,15.70312 10.54688,25.875 26.0625,25.875 z m 0,-12.84375 c -5.67187,0 -9.70312,-4.64063 -9.70312,-13.03125 0,-8.34375 4.07812,-13.03125 9.70312,-13.03125 5.625,0 9.70313,4.6875 9.70313,13.03125 0,8.39062 -4.07813,13.03125 -9.70313,13.03125 z m 46.07813,-58.125 h -16.125 V 705 h 16.125 z m 30,70.96875 c 15.51562,0 26.01562,-10.17188 26.01562,-25.875 0,-15.60938 -10.5,-25.875 -26.01562,-25.875 -15.51563,0 -26.0625,10.26562 -26.0625,25.875 0,15.70312 10.54687,25.875 26.0625,25.875 z m 0,-12.84375 c -5.67188,0 -9.70313,-4.64063 -9.70313,-13.03125 0,-8.34375 4.07813,-13.03125 9.70313,-13.03125 5.625,0 9.70312,4.6875 9.70312,13.03125 0,8.39062 -4.07812,13.03125 -9.70312,13.03125 z m 54.375,31.96875 C 825,725.25 834.75,718.40625 834.75,702.28125 V 655.5 h -16.03125 v 6.9375 h -0.0469 c -3.09375,-5.20313 -7.92187,-8.01563 -14.34375,-8.01563 -12.5625,0 -21.28125,10.59375 -21.28125,25.3125 0,14.53125 8.4375,24.9375 21.42188,24.9375 6.46875,0 11.57812,-2.57812 14.20312,-8.4375 h 0.0469 v 7.64063 c 0,6.5625 -3.1875,9.9375 -9.1875,9.9375 -4.64063,0 -7.78125,-1.875 -8.625,-4.96875 h -15.42188 c 1.5,9.51562 8.8125,16.40625 24.04688,16.40625 z m -0.5625,-33.23438 c -5.90625,0 -9.5625,-4.6875 -9.5625,-12.5625 0,-7.82812 3.65625,-12.51562 9.5625,-12.51562 6.09375,0 10.26562,4.92187 10.26562,12.51562 0,7.64063 -4.17187,12.5625 -10.26562,12.5625 z m 33.32812,32.57813 H 853.125 c 8.29687,0 13.03125,-3.65625 16.40625,-12.60938 L 890.85937,655.5 h -16.6875 l -7.45312,22.78125 c -1.07813,3.42187 -2.10938,6.89062 -3.04688,10.35937 -0.98437,-3.46875 -1.96875,-6.9375 -3.04687,-10.35937 L 853.3125,655.5 h -16.875 l 19.03125,49.40625 -0.84375,2.25 c -1.17188,3.60937 -2.10938,4.92187 -5.48438,4.92187 h -6.84375 z"
         id="path36" />
    </g>
    <path
       id="line24"
       style="stroke:#009b8f;stroke-width:5;stroke-linecap:round"
       d="M 182,803 H 468" />
    <path
       id="line25"
       style="stroke:#009b8f;stroke-width:5;stroke-linecap:round"
       d="m 732,803 h 286" />
    <path
       d="m 527.1123,823.53906 c 8.24317,0 13.27442,-3.97558 13.27442,-10.42187 0,-5.03125 -3.16699,-7.97364 -10.30957,-9.47852 l -3.21192,-0.69629 c -4.11035,-0.89843 -5.77246,-2.04394 -5.77246,-4.11035 0,-2.44824 2.40332,-4.15527 5.81739,-4.15527 3.59375,0 5.95214,1.9541 6.19921,5.12109 h 6.46875 c -0.20214,-6.73828 -4.98632,-10.80371 -12.69042,-10.80371 -7.61426,0 -12.7129,4.08789 -12.7129,10.17481 0,4.78417 3.21192,7.86132 9.8379,9.29882 l 3.52636,0.76368 c 4.24512,0.92089 5.99707,2.17871 5.99707,4.33496 0,2.60546 -2.53808,4.29004 -6.3789,4.29004 -4.29004,0 -6.87305,-2.15625 -6.96289,-5.83985 h -6.6709 c 0,7.27735 5.00879,11.52246 13.58886,11.52246 z m 48.00782,0 c 8.24316,0 13.27441,-3.97558 13.27441,-10.42187 0,-5.03125 -3.16699,-7.97364 -10.30957,-9.47852 l -3.21191,-0.69629 c -4.11035,-0.89843 -5.77246,-2.04394 -5.77246,-4.11035 0,-2.44824 2.40332,-4.15527 5.81738,-4.15527 3.59375,0 5.95215,1.9541 6.19922,5.12109 h 6.46875 c -0.20215,-6.73828 -4.98633,-10.80371 -12.69043,-10.80371 -7.61426,0 -12.71289,4.08789 -12.71289,10.17481 0,4.78417 3.21191,7.86132 9.83789,9.29882 l 3.52636,0.76368 c 4.24512,0.92089 5.99708,2.17871 5.99708,4.33496 0,2.60546 -2.53809,4.29004 -6.37891,4.29004 -4.29004,0 -6.87305,-2.15625 -6.96289,-5.83985 h -6.6709 c 0,7.27735 5.00879,11.52246 13.58887,11.52246 z M 610.45996,823 h 6.91797 v -11.5 h 6.19922 c 7.52441,0 12.33105,-4.24512 12.33105,-10.9834 0,-6.73828 -4.71679,-10.9834 -12.24121,-10.9834 h -13.20703 z m 6.91797,-17.29492 v -10.37696 h 5.83984 c 3.66114,0 5.92969,1.99903 5.92969,5.18848 0,3.18945 -2.26855,5.18848 -5.92969,5.18848 z M 657.50195,823 h 6.91797 V 808.89453 H 678.6377 V 823 h 6.8955 v -33.4668 h -6.8955 v 13.43164 H 664.41992 V 789.5332 h -6.91797 z"
       id="text25"
       class="latin-medium"
       style="font-weight:700;font-size:46px;font-family:'Inter Display', Inter, Arial, sans-serif;letter-spacing:18;text-anchor:middle;fill:#009b8f"
       aria-label="SSPH" />
    <path
       id="circle25"
       style="fill:#009b8f"
       d="m 570,870 a 7,7 0 0 1 -7,7 7,7 0 0 1 -7,-7 7,7 0 0 1 7,-7 7,7 0 0 1 7,7 z" />
    <path
       id="circle26"
       style="fill:#c9102e"
       d="m 607,870 a 7,7 0 0 1 -7,7 7,7 0 0 1 -7,-7 7,7 0 0 1 7,-7 7,7 0 0 1 7,7 z" />
    <path
       id="circle27"
       style="fill:#00529b"
       d="m 644,870 a 7,7 0 0 1 -7,7 7,7 0 0 1 -7,-7 7,7 0 0 1 7,-7 7,7 0 0 1 7,7 z" />
    <path
       d="m 142.66003,896.705 v 26.46 h -12.6 v 4.235 h 32.025 v -4.235 h -14.91 V 911.02 h 12.425 v -4.235 h -12.425 v -10.08 z m 26.115,2.94 c 2.065,1.085 4.76,2.8 6.09,3.955 l 2.45,-3.185 c -1.4,-1.12 -4.2,-2.66 -6.23,-3.605 z m -1.995,9.975 c 1.96,1.05 4.55,2.695 5.705,3.885 l 2.415,-3.185 c -1.26,-1.12 -3.85,-2.625 -5.845,-3.535 z m 0.945,16.66 3.64,2.275 c 1.54,-3.43 3.15,-7.525 4.445,-11.27 l -3.22,-2.275 c -1.47,4.095 -3.465,8.54 -4.865,11.27 z m 17.605,-16.065 c 0.875,0.735 1.855,1.715 2.59,2.555 h -4.795 l 0.42,-3.325 h 2.975 z m -4.725,-13.965 c -1.19,3.885 -3.29,7.91 -5.6,10.43 0.98,0.525 2.765,1.645 3.605,2.31 0.42,-0.525 0.84,-1.12 1.26,-1.75 -0.14,1.75 -0.35,3.64 -0.595,5.53 h -3.64 v 3.78 h 3.115 c -0.385,2.73 -0.805,5.285 -1.225,7.315 h 14.595 c -0.14,0.525 -0.315,0.875 -0.49,1.085 -0.385,0.455 -0.7,0.56 -1.295,0.56 -0.7,0 -2.065,0 -3.605,-0.14 0.595,0.945 0.98,2.45 1.05,3.43 1.68,0.105 3.36,0.105 4.41,-0.07 1.19,-0.175 2.065,-0.49 2.87,-1.61 0.42,-0.56 0.805,-1.575 1.085,-3.255 h 2.59 v -3.57 h -2.135 l 0.28,-3.745 h 2.73 v -3.78 h -2.52 l 0.245,-5.145 c 0.035,-0.525 0.07,-1.785 0.07,-1.785 h -16.625 c 0.42,-0.735 0.84,-1.47 1.26,-2.275 h 16.625 v -3.78 h -14.91 c 0.315,-0.84 0.63,-1.68 0.91,-2.52 z m 3.78,21.175 c 1.015,0.805 2.17,1.925 3.01,2.87 h -5.25 l 0.49,-3.745 h 3.115 z m 3.85,-7.98 h 5.18 l -0.14,3.325 h -3.395 l 0.98,-0.665 c -0.595,-0.735 -1.645,-1.785 -2.625,-2.66 z m -0.84,7.105 h 5.67 c -0.105,1.47 -0.21,2.695 -0.35,3.745 h -3.325 l 1.12,-0.77 c -0.7,-0.84 -1.96,-2.03 -3.115,-2.975 z m 28.985,-19.39 c 0.595,1.155 1.26,2.59 1.785,3.85 h -14.105 v 4.13 h 13.685 v 3.885 h -10.71 v 16.485 h 4.235 v -12.355 h 6.475 v 15.785 h 4.375 v -15.785 h 7 v 7.7 c 0,0.42 -0.21,0.595 -0.77,0.595 -0.56,0 -2.625,0 -4.375,-0.07 0.56,1.12 1.225,2.905 1.4,4.13 2.73,0 4.725,-0.07 6.23,-0.7 1.435,-0.665 1.89,-1.855 1.89,-3.885 v -11.9 h -11.375 v -3.885 h 14.07 v -4.13 h -13.055 c -0.56,-1.4 -1.715,-3.535 -2.59,-5.145 z m 44.21,-1.19 c -0.945,3.115 -2.695,6.23 -4.83,8.155 0.91,0.42 2.45,1.26 3.395,1.89 h -8.4 l 3.465,-1.295 c -0.245,-0.77 -0.77,-1.75 -1.295,-2.73 h 4.585 v -3.01 h -8.12 c 0.315,-0.665 0.595,-1.33 0.875,-1.995 l -3.815,-1.015 c -1.19,3.15 -3.325,6.37 -5.67,8.365 0.84,0.385 2.275,1.155 3.15,1.715 v 3.395 h 10.675 v 2.03 h -9.38 c -0.28,2.975 -0.805,6.58 -1.295,8.995 h 7.49 c -2.73,2.24 -6.51,4.165 -10.15,5.215 0.875,0.805 2.065,2.31 2.66,3.29 3.815,-1.4 7.7,-3.78 10.675,-6.65 v 6.825 h 4.13 v -8.68 h 8.435 c -0.245,1.925 -0.49,2.87 -0.84,3.22 -0.315,0.28 -0.665,0.315 -1.225,0.315 -0.63,0.035 -2.1,0 -3.57,-0.14 0.63,1.015 1.12,2.625 1.19,3.815 1.785,0.07 3.465,0.035 4.445,-0.07 1.085,-0.105 1.925,-0.385 2.66,-1.225 0.91,-0.945 1.33,-3.22 1.68,-7.91 0.07,-0.49 0.105,-1.505 0.105,-1.505 h -12.88 v -2.065 h 11.165 v -8.89 h -3.465 l 3.57,-1.47 c -0.35,-0.735 -0.945,-1.645 -1.61,-2.555 h 4.9 v -3.045 h -9.38 c 0.28,-0.665 0.525,-1.33 0.735,-2.03 z m -11.725,18.935 h 5.74 v 2.065 h -6.02 z m 9.87,-5.46 h 7.035 v 2.03 h -7.035 z m -14.175,-3.43 c 1.05,-1.12 2.1,-2.485 3.115,-4.025 h 1.05 c 0.77,1.33 1.505,2.94 1.82,4.025 z m 15.05,0 c 0.98,-1.085 1.96,-2.485 2.835,-4.025 h 1.4 c 0.98,1.33 2.03,2.905 2.52,4.025 z m 27.095,6.44 c -2.205,4.865 -5.74,10.255 -8.96,13.545 1.155,0.665 3.255,2.065 4.235,2.87 3.08,-3.71 6.86,-9.59 9.45,-14.91 z m 9.87,1.715 c 2.975,4.62 7.07,10.78 8.855,14.49 l 4.48,-2.45 c -2.065,-3.71 -6.37,-9.66 -9.275,-14 z m -6.545,-16.38 c 1.12,2.31 2.555,5.39 3.15,7.28 h -14.945 v 4.375 h 31.78 v -4.375 h -16.625 l 4.515,-1.68 c -0.735,-1.89 -2.31,-4.865 -3.465,-7.07 z m 38.26,-1.47 c -0.14,5.95 0.525,21.7 -13.755,29.33 1.4,0.945 2.765,2.31 3.5,3.43 7.315,-4.305 11.025,-10.675 12.95,-16.87 1.995,6.055 5.915,12.95 13.72,16.66 0.595,-1.19 1.785,-2.625 3.08,-3.64 -12.215,-5.46 -14.42,-18.585 -14.91,-23.345 0.14,-2.17 0.21,-4.06 0.245,-5.565 z m 26.15,33.005 c 1.12,-0.63 2.87,-0.98 13.545,-3.605 -0.21,-0.945 -0.42,-2.8 -0.455,-3.99 l -8.75,1.995 v -6.545 h 9.135 c 1.96,6.72 5.635,11.55 10.08,11.55 3.15,0 4.655,-1.295 5.285,-7.14 -1.155,-0.35 -2.73,-1.19 -3.64,-2.03 -0.21,3.5 -0.56,5.005 -1.435,5.005 -1.925,0 -4.2,-3.01 -5.74,-7.385 h 10.045 v -3.92 h -11.095 c -0.28,-1.26 -0.49,-2.59 -0.595,-3.955 h 9.205 V 897.86 h -25.62 v 24.71 c 0,1.575 -1.015,2.555 -1.855,3.045 0.7,0.805 1.61,2.625 1.89,3.71 z m 12.565,-16.065 h -8.225 v -3.955 h 7.7 c 0.105,1.365 0.28,2.66 0.525,3.955 z m -8.225,-11.515 h 16.975 v 3.675 h -16.975 z m 61.64,-3.885 h -30.065 v 30.17 h 30.8 v -3.99 h -5.565 l 2.485,-2.8 c -1.855,-1.68 -5.32,-3.955 -8.26,-5.74 h 9.66 v -3.64 h -9.625 v -3.36 h 8.155 v -3.535 h -14.35 c 0.35,-0.63 0.665,-1.295 0.91,-1.96 l -3.92,-0.98 c -0.945,2.555 -2.765,5.075 -4.865,6.65 0.945,0.49 2.66,1.435 3.465,2.1 0.7,-0.63 1.435,-1.4 2.1,-2.275 h 4.34 v 3.36 h -9.73 v 3.64 h 9.065 c -1.015,2.065 -3.465,4.025 -9.1,5.355 0.91,0.805 2.1,2.275 2.59,3.15 4.935,-1.47 7.805,-3.43 9.45,-5.6 2.8,1.82 5.845,4.06 7.49,5.635 h -20.86 v -22.19 h 25.83 z m 24.4,-0.84 c 0.525,0.98 1.05,2.24 1.435,3.325 h -8.155 v 6.965 h 2.765 v 3.115 h 14.455 v -3.115 h 2.765 v -6.965 h -7.28 c -0.455,-1.295 -1.225,-3.08 -2.03,-4.445 z m -2.87,9.8 v -2.835 h 12.11 v 2.835 z m -3.78,6.23 v 3.745 h 4.235 c -0.455,4.41 -1.68,7.245 -7.28,8.96 0.84,0.805 1.96,2.345 2.345,3.395 6.79,-2.38 8.435,-6.44 8.96,-12.355 h 2.31 v 7.21 c 0,3.465 0.7,4.655 3.815,4.655 0.56,0 1.82,0 2.415,0 2.485,0 3.465,-1.33 3.78,-6.195 -1.015,-0.245 -2.66,-0.875 -3.43,-1.505 -0.07,3.605 -0.245,4.165 -0.77,4.165 -0.245,0 -1.085,0 -1.26,0 -0.525,0 -0.56,-0.14 -0.56,-1.155 v -7.175 h 5.53 v -3.745 z m -11.235,-15.4 v 31.36 h 3.675 v -27.615 h 2.8 c -0.56,2.275 -1.295,5.11 -1.96,7.28 1.995,2.45 2.415,4.725 2.415,6.405 0,1.015 -0.175,1.785 -0.595,2.1 -0.245,0.21 -0.595,0.28 -0.945,0.28 -0.42,0.035 -0.91,0 -1.54,-0.035 0.595,1.015 0.91,2.59 0.91,3.605 0.84,0.035 1.645,0.035 2.31,-0.07 0.77,-0.14 1.435,-0.35 1.995,-0.77 1.12,-0.84 1.575,-2.38 1.575,-4.655 0,-2.065 -0.455,-4.515 -2.59,-7.315 1.015,-2.695 2.17,-6.23 3.045,-9.17 l -2.73,-1.575 -0.595,0.175 z m 65.24997,-1.4 c -0.84,5.67 -2.45,11.095 -5.005,14.7 v -0.35 c 0.035,-0.49 0.035,-1.68 0.035,-1.68 h -6.93 v -3.43 h 8.085 v -3.885 h -7.63 l 2.87,-0.805 c -0.35,-1.26 -1.015,-3.185 -1.68,-4.655 l -3.745,0.91 c 0.56,1.365 1.19,3.255 1.47,4.55 h -6.79 v 3.885 h 3.43 v 6.79 c 0,4.515 -0.49,9.59 -4.27,13.93 1.015,0.7 2.38,1.855 3.08,2.765 4.34,-4.795 5.145,-10.64 5.18,-16.24 h 2.94 c -0.14,8.26 -0.35,11.235 -0.84,11.97 -0.245,0.42 -0.56,0.525 -1.015,0.525 -0.525,0 -1.54,-0.035 -2.66,-0.105 0.595,1.05 0.98,2.66 1.085,3.815 1.47,0.035 2.87,0.035 3.78,-0.14 0.98,-0.21 1.68,-0.56 2.345,-1.54 0.84,-1.225 1.085,-4.97 1.225,-14.77 0.91,0.84 1.995,2.03 2.485,2.695 0.7,-0.84 1.33,-1.82 1.925,-2.835 0.7,2.625 1.54,5.005 2.625,7.175 -1.82,2.555 -4.27,4.55 -7.49,6.02 0.77,0.875 1.96,2.765 2.345,3.675 3.045,-1.575 5.495,-3.535 7.455,-5.915 1.715,2.345 3.885,4.235 6.545,5.635 0.63,-1.12 1.925,-2.765 2.87,-3.605 -2.87,-1.295 -5.145,-3.325 -6.895,-5.845 1.89,-3.57 3.115,-7.84 3.885,-12.985 h 2.625 v -3.885 h -10.255 c 0.49,-1.855 0.91,-3.78 1.225,-5.705 z m 1.925,10.255 h 4.62 c -0.455,3.255 -1.155,6.125 -2.17,8.61 -1.085,-2.555 -1.925,-5.39 -2.485,-8.47 z m 32.38,4.83 c 1.645,2.625 3.22,6.125 3.78,8.435 l 3.5,-1.54 c -0.665,-2.275 -2.275,-5.67 -3.99,-8.19 z m -10.395,-3.22 h 5.11 v 1.75 h -5.11 z m 0,-2.94 v -1.82 h 5.11 v 1.82 z m 0,7.63 h 5.11 v 1.785 h -5.11 z m -6.195,1.785 v 3.675 h 7.14 c -2.065,2.73 -4.865,5.04 -7.91,6.545 0.77,0.7 2.1,2.24 2.625,3.01 3.605,-2.135 7.035,-5.32 9.45,-9.135 v 6.335 c 0,0.49 -0.175,0.665 -0.63,0.665 -0.49,0.035 -2.03,0.035 -3.465,-0.035 0.525,0.91 1.085,2.555 1.26,3.535 2.345,0 4.025,-0.07 5.18,-0.665 1.155,-0.595 1.505,-1.61 1.505,-3.43 v -24.92 h -5.145 c 0.455,-1.015 0.98,-2.24 1.505,-3.5 l -4.305,-0.42 c -0.175,1.155 -0.63,2.66 -1.05,3.92 h -3.675 v 14.42 z m 24.99,-18.06 v 7.28 h -8.68 v 4.025 h 8.68 v 16.52 c 0,0.63 -0.245,0.77 -0.875,0.805 -0.595,0.035 -2.695,0.035 -4.725,-0.07 0.56,1.12 1.155,2.87 1.33,3.955 3.01,0.035 5.11,-0.105 6.44,-0.735 1.33,-0.63 1.785,-1.715 1.785,-3.955 v -16.52 h 3.465 v -4.025 h -3.465 v -7.28 z m 32.73,14.14 v 18.48 h 4.48 v -18.48 z m -13.195,0.07 v 3.885 c 0,3.675 -0.665,8.12 -6.825,11.41 1.12,0.7 2.8,2.17 3.535,3.15 6.965,-3.92 7.735,-9.765 7.735,-14.455 v -3.99 z m 8.365,-14.945 c -3.22,5.145 -10.01,9.975 -16.73,12.005 0.945,1.085 1.995,2.835 2.555,4.025 5.18,-2.03 10.465,-5.565 14.35,-9.625 3.57,4.165 8.54,7.455 14.14,9.135 0.63,-1.225 1.995,-3.045 3.01,-3.99 -5.95,-1.4 -11.445,-4.515 -14.56,-8.19 l 0.665,-0.945 z m 29.195,4.305 c 2.205,1.47 3.99,3.325 5.495,5.425 -2.065,9.275 -6.37,16.065 -13.86,19.775 1.12,0.805 3.08,2.555 3.85,3.43 6.335,-3.745 10.675,-9.66 13.44,-17.675 3.57,6.58 6.58,13.755 13.79,17.78 0.245,-1.295 1.365,-3.675 2.03,-4.83 -11.305,-7.14 -10.92,-19.39 -22.12,-27.545 z m 44.35,0.63 c 1.925,1.54 4.235,3.815 5.215,5.32 l 2.94,-2.625 c -1.085,-1.54 -3.5,-3.64 -5.425,-5.04 z m -1.295,9.24 c 2.03,1.54 4.515,3.815 5.6,5.39 l 2.87,-2.73 c -1.19,-1.505 -3.745,-3.64 -5.775,-5.075 z m -2.835,-13.405 c -2.905,1.225 -7.315,2.275 -11.305,2.87 0.455,0.91 0.98,2.345 1.12,3.255 1.26,-0.14 2.625,-0.35 3.955,-0.56 v 3.99 h -5.32 v 3.885 h 4.76 c -1.26,3.395 -3.255,7.175 -5.215,9.45 0.665,1.05 1.575,2.8 1.96,3.99 1.365,-1.75 2.695,-4.235 3.815,-6.93 v 12.6 h 4.06 V 914.87 c 0.84,1.365 1.68,2.87 2.135,3.85 l 2.415,-3.29 c -0.665,-0.84 -3.57,-4.2 -4.55,-5.11 v -0.315 h 4.62 v -3.885 h -4.62 v -4.795 c 1.61,-0.385 3.15,-0.84 4.515,-1.33 z m 1.855,22.26 0.665,3.99 10.605,-1.855 v 8.12 h 4.165 v -8.82 l 4.13,-0.735 -0.665,-3.955 -3.465,0.595 V 896.25 h -4.165 v 20.65 z m 65.24998,-20.965 h -30.065 v 30.17 h 30.8 v -3.99 h -5.565 l 2.485,-2.8 c -1.855,-1.68 -5.32,-3.955 -8.26,-5.74 h 9.66 v -3.64 h -9.625 v -3.36 h 8.155 v -3.535 h -14.35 c 0.35,-0.63 0.665,-1.295 0.91,-1.96 l -3.92,-0.98 c -0.945,2.555 -2.765,5.075 -4.865,6.65 0.945,0.49 2.66,1.435 3.465,2.1 0.7,-0.63 1.435,-1.4 2.1,-2.275 h 4.34 v 3.36 h -9.73 v 3.64 h 9.065 c -1.015,2.065 -3.465,4.025 -9.1,5.355 0.91,0.805 2.1,2.275 2.59,3.15 4.935,-1.47 7.805,-3.43 9.45,-5.6 2.8,1.82 5.845,4.06 7.49,5.635 h -20.86 v -22.19 h 25.83 z m 19.395,16.03 v 2.205 h -13.37 v 3.85 h 13.37 v 4.41 c 0,0.455 -0.175,0.63 -0.875,0.63 -0.735,0.035 -3.325,0.035 -5.565,-0.07 0.63,1.12 1.435,2.87 1.715,4.06 2.975,0 5.18,-0.07 6.825,-0.665 1.68,-0.595 2.205,-1.68 2.205,-3.85 v -4.515 h 13.65 v -3.85 h -13.65 v -0.665 c 3.01,-1.435 5.845,-3.36 7.98,-5.32 l -2.66,-2.1 -0.875,0.21 h -15.855 v 3.64 h 11.095 c -1.26,0.77 -2.66,1.505 -3.99,2.03 z m -0.945,-16.555 c 0.875,1.365 1.785,3.115 2.275,4.48 h -5.915 l 1.33,-0.63 c -0.56,-1.33 -1.96,-3.22 -3.185,-4.585 l -3.57,1.575 c 0.875,1.085 1.82,2.45 2.45,3.64 h -5.355 v 7.735 h 3.92 v -4.025 h 22.435 v 4.025 h 4.13 v -7.735 h -5.11 c 0.98,-1.225 1.995,-2.625 2.94,-3.99 l -4.34,-1.33 c -0.7,1.61 -1.89,3.675 -3.01,5.32 h -4.585 l 2.065,-0.805 c -0.455,-1.435 -1.61,-3.535 -2.765,-5.075 z m 51.21,-0.455 c -1.82,2.765 -5.32,5.6 -8.295,7.21 1.085,0.77 2.31,2.03 2.975,2.905 3.36,-2.065 6.86,-5.145 9.275,-8.54 z m 0.875,9.52 c -1.995,2.94 -5.845,5.915 -9.065,7.63 1.05,0.77 2.275,2.03 2.905,2.975 3.57,-2.205 7.42,-5.46 10.01,-9.03 z m -21.805,9.905 h 7.84 v 1.82 h -7.84 z m -0.49,-12.565 h 8.785 v 1.33 h -8.785 z m 0,-3.71 h 8.785 v 1.295 h -8.785 z m -2.38,20.93 c -0.735,1.715 -1.925,3.605 -3.185,4.9 0.805,0.525 2.205,1.61 2.87,2.205 1.33,-1.47 2.835,-3.955 3.78,-6.055 z m 9.345,1.225 c 1.085,1.785 2.31,4.235 2.8,5.74 l 3.15,-1.505 -0.315,-0.735 c 0.98,0.84 2.17,2.17 2.765,3.185 4.62,-2.59 8.785,-6.475 11.41,-11.235 l -3.885,-1.435 c -2.135,3.955 -6.23,7.385 -10.36,9.345 -0.665,-1.4 -1.75,-3.22 -2.625,-4.655 z m -5.075,-14 0.49,1.015 h -7.91 v 3.185 h 19.67 V 909.2 h -7.28 c -0.245,-0.56 -0.525,-1.12 -0.84,-1.61 h 6.93 v -10.08 h -16.905 v 10.08 h 8.785 z m -5.285,5.355 v 7.28 h 5.67 v 4.515 c 0,0.315 -0.105,0.42 -0.49,0.42 -0.315,0 -1.435,0 -2.485,-0.035 0.49,0.945 0.98,2.31 1.155,3.36 1.89,0 3.36,0 4.48,-0.525 1.19,-0.525 1.435,-1.4 1.435,-3.115 v -4.62 h 6.055 v -7.28 z m 50.615,-11.69 h 5.215 c -0.455,0.665 -0.945,1.295 -1.435,1.82 h -5.285 c 0.525,-0.595 1.05,-1.19 1.505,-1.82 z m -9.17,-5.46 c -1.68,4.97 -4.55,9.975 -7.595,13.16 0.7,1.05 1.855,3.325 2.24,4.375 0.7,-0.735 1.365,-1.575 2.03,-2.45 v 17.605 h 3.99 v -23.975 l 0.07,-0.14 c 0.84,0.595 2.065,1.855 2.625,2.695 l 0.98,-0.77 v 4.97 h 4.34 c -1.61,1.155 -3.85,2.24 -6.93,3.15 0.735,0.7 1.75,1.82 2.24,2.485 2.835,-0.84 5.005,-1.855 6.65,-2.975 l 0.77,0.805 c -2.135,1.785 -6.09,3.535 -9.275,4.41 0.7,0.63 1.715,1.82 2.205,2.59 2.73,-0.98 6.055,-2.835 8.435,-4.725 l 0.455,1.19 c -2.66,2.45 -7.42,4.795 -11.585,5.985 0.77,0.7 1.855,2.03 2.415,2.905 3.255,-1.155 6.86,-3.15 9.73,-5.46 0,1.26 -0.245,2.275 -0.595,2.73 -0.35,0.63 -0.805,0.735 -1.435,0.735 -0.56,0 -1.33,-0.035 -2.205,-0.14 0.63,1.05 0.91,2.59 0.945,3.57 0.735,0.035 1.505,0.07 2.135,0.035 1.4,-0.035 2.485,-0.385 3.43,-1.54 1.365,-1.47 1.89,-5.075 0.945,-8.68 l 1.19,-0.49 c 1.085,3.64 2.835,6.86 5.39,8.68 0.595,-0.98 1.785,-2.38 2.625,-3.08 -2.31,-1.4 -4.025,-4.06 -5.005,-7 1.155,-0.595 2.275,-1.19 3.325,-1.785 l -2.765,-2.59 c -1.47,1.12 -3.78,2.485 -5.81,3.535 -0.7,-1.365 -1.645,-2.625 -2.905,-3.71 l 0.56,-0.63 h 10.08 v -8.19 h -6.37 c 0.91,-1.085 1.785,-2.24 2.485,-3.325 l -2.345,-1.785 -0.77,0.21 h -5.39 l 0.98,-1.715 -3.92,-0.77 c -1.435,2.8 -3.955,6.125 -7.63,8.645 1.26,-2.38 2.38,-4.865 3.255,-7.28 z m 8.05,10.29 h 4.48 c -0.14,0.665 -0.42,1.4 -0.91,2.17 h -3.57 z m 7.875,0 h 3.92 v 2.17 h -4.48 c 0.315,-0.77 0.455,-1.505 0.56,-2.17 z m 27.655,-10.36 c -0.14,5.95 0.525,21.7 -13.755,29.33 1.4,0.945 2.765,2.31 3.5,3.43 7.315,-4.305 11.025,-10.675 12.95,-16.87 1.995,6.055 5.915,12.95 13.72,16.66 0.595,-1.19 1.785,-2.625 3.08,-3.64 -12.215,-5.46 -14.42,-18.585 -14.91,-23.345 0.14,-2.17 0.21,-4.06 0.245,-5.565 z m 23.84,26.145 v 4.235 h 31.99 v -4.235 h -13.79 V 904.3 h 11.83 v -4.41 h -28.105 v 4.41 h 11.48 v 18.165 z m 58.07,-19.95 h 5.32 v 5.95 h -5.32 z m -3.92,-3.675 v 13.335 h 13.405 V 898.84 Z m -8.435,23.73 h 14.525 v 2.03 h -14.525 z m 0,-3.045 v -1.96 h 14.525 v 1.96 z m -4.095,-5.25 v 14.84 h 4.095 v -1.155 h 14.525 v 1.12 h 4.305 v -14.805 z m 1.995,-12.11 v 1.505 l -0.035,0.77 h -3.325 c 0.56,-0.665 1.085,-1.435 1.61,-2.275 z m -3.185,-6.125 c -0.7,2.625 -2.03,5.18 -3.85,6.86 0.7,0.315 1.855,0.98 2.695,1.54 h -2.38 v 3.29 h 5.845 c -0.91,1.715 -2.695,3.465 -6.265,4.83 0.91,0.7 2.1,1.96 2.66,2.8 3.185,-1.47 5.215,-3.22 6.475,-5.04 1.575,1.12 3.5,2.555 4.515,3.43 l 2.975,-2.66 c -0.91,-0.63 -4.41,-2.625 -5.915,-3.36 h 5.81 v -3.29 h -5.425 l 0.035,-0.7 v -1.575 h 4.55 v -3.255 h -8.715 c 0.28,-0.7 0.525,-1.4 0.7,-2.1 z m 44.245,16.31 v 1.855 h -5.215 v -1.855 z m -9.1,-3.43 v 20.16 h 3.885 v -6.615 h 5.215 v 2.345 c 0,0.42 -0.105,0.525 -0.56,0.525 -0.455,0.035 -1.82,0.07 -3.08,0 0.525,0.98 1.155,2.625 1.365,3.71 2.1,0 3.71,-0.035 4.9,-0.7 1.19,-0.595 1.54,-1.645 1.54,-3.465 v -15.96 z m 3.885,8.4 h 5.215 v 2.03 h -5.215 z m 22.645,-18.865 c -1.68,0.98 -4.025,2.065 -6.405,2.975 v -5.04 h -4.13 v 10.57 c 0,3.85 0.98,5.04 5.075,5.04 0.84,0 3.955,0 4.83,0 3.22,0 4.34,-1.26 4.795,-5.775 -1.155,-0.245 -2.835,-0.875 -3.675,-1.54 -0.14,3.115 -0.385,3.64 -1.505,3.64 -0.735,0 -3.29,0 -3.85,0 -1.33,0 -1.54,-0.175 -1.54,-1.4 v -2.1 c 3.08,-0.875 6.37,-2.03 9.065,-3.325 z m 0.245,15.75 c -1.68,1.12 -4.095,2.31 -6.58,3.29 v -4.725 h -4.165 v 11.06 c 0,3.85 1.05,5.075 5.145,5.075 0.84,0 4.06,0 4.935,0 3.36,0 4.48,-1.4 4.935,-6.335 -1.155,-0.28 -2.835,-0.91 -3.71,-1.575 -0.175,3.605 -0.385,4.235 -1.61,4.235 -0.735,0 -3.36,0 -3.955,0 -1.33,0 -1.575,-0.175 -1.575,-1.435 v -2.8 c 3.185,-0.98 6.65,-2.24 9.345,-3.71 z m -26.88,-6.965 c 0.91,-0.35 2.31,-0.595 10.745,-1.33 0.245,0.63 0.455,1.225 0.595,1.75 l 3.815,-1.505 c -0.595,-2.205 -2.345,-5.355 -3.99,-7.735 l -3.57,1.33 c 0.595,0.91 1.19,1.96 1.715,3.01 l -5.145,0.35 c 1.365,-1.715 2.765,-3.78 3.78,-5.775 l -4.48,-1.155 c -0.98,2.555 -2.625,5.075 -3.185,5.74 -0.56,0.735 -1.12,1.26 -1.68,1.4 0.49,1.085 1.19,3.045 1.4,3.92 z m 52.505,16.45 c 4.48,1.33 9.065,3.465 11.76,5.285 l 2.555,-3.325 c -2.835,-1.715 -7.805,-3.78 -12.355,-5.075 z m -10.43,-16.765 c 1.82,1.05 4.06,2.73 5.04,3.885 l 2.625,-3.01 c -1.12,-1.19 -3.395,-2.695 -5.215,-3.605 z m -3.57,5.25 c 1.855,1.015 4.165,2.59 5.215,3.78 l 2.52,-3.15 c -1.155,-1.12 -3.5,-2.59 -5.355,-3.43 z m -1.855,-12.635 v 8.05 h 4.165 v -4.13 h 21.175 v 4.13 h 4.41 v -8.05 h -11.865 c -0.525,-1.19 -1.295,-2.59 -1.995,-3.71 l -4.235,1.295 c 0.42,0.735 0.84,1.575 1.225,2.415 z m -0.315,16.87 v 3.5 h 11.34 c -2.03,2.485 -5.39,4.305 -11.06,5.565 0.875,0.91 1.925,2.52 2.345,3.605 7.735,-1.89 11.725,-4.935 13.86,-9.17 h 13.965 v -3.5 h -12.705 c 0.875,-3.255 1.085,-7.07 1.225,-11.445 h -4.445 c -0.14,4.585 -0.245,8.365 -1.295,11.445 z m 35.32002,3.71 0.7,3.29 c 2.59,-0.595 5.67,-1.365 8.68,-2.065 l -0.315,-3.08 c -3.36,0.735 -6.72,1.435 -9.065,1.855 z m 15.435,-6.335 c 0.77,2.625 1.61,6.055 1.855,8.295 l 3.395,-0.945 c -0.35,-2.205 -1.19,-5.6 -2.065,-8.19 z m 6.055,-0.98 c 0.56,2.625 1.19,6.055 1.33,8.33 l 3.36,-0.56 c -0.21,-2.24 -0.84,-5.565 -1.47,-8.225 z m -19.215,-9.415 c -0.14,3.955 -0.49,9.205 -0.945,12.39 h 9.1 c -0.35,6.16 -0.735,8.715 -1.365,9.38 -0.35,0.35 -0.665,0.42 -1.225,0.42 -0.665,0 -2.135,-0.035 -3.675,-0.175 0.56,0.945 0.98,2.345 1.05,3.36 1.68,0.07 3.325,0.07 4.27,-0.035 1.12,-0.14 1.925,-0.42 2.66,-1.33 1.05,-1.225 1.505,-4.655 1.925,-13.405 0.035,-0.455 0.07,-1.505 0.07,-1.505 h -2.695 c 0.42,-3.99 0.84,-10.115 1.085,-14.945 h -11.62 v 3.535 H 1009 c -0.21,3.99 -0.525,8.33 -0.91,11.445 h -2.73 c 0.245,-2.8 0.49,-6.125 0.63,-8.925 z m 20.475,-1.4 c 1.47,1.68 3.15,3.43 4.935,4.97 h -9.31 c 1.575,-1.505 3.045,-3.185 4.375,-4.97 z m -0.63,-6.125 c -2.17,4.48 -6.09,8.54 -10.185,10.99 0.7,0.805 1.925,2.59 2.38,3.43 1.19,-0.805 2.345,-1.75 3.5,-2.8 v 3.01 h 10.85 V 907.8 c 1.05,0.875 2.135,1.68 3.185,2.38 0.385,-1.155 1.19,-3.115 1.89,-4.165 -3.115,-1.645 -6.58,-4.55 -8.89,-7.245 l 0.91,-1.645 z m -7.56,28.175 v 3.57 h 18.235 v -3.57 h -4.2 c 1.435,-3.045 3.01,-7.14 4.27,-10.675 l -3.78,-0.805 c -0.84,3.5 -2.485,8.26 -3.955,11.48 z m 26.85,-6.16 v 3.605 h 10.185 v 3.01 h -13.265 v 3.675 h 31.15 v -3.675 h -13.58 v -3.01 h 10.78 v -3.605 h -10.78 v -2.66 h -4.305 v 2.66 z m 9.59,-20.93 c 0.315,0.63 0.63,1.365 0.91,2.1 h -13.51 v 6.755 h 3.92 v 2.8 h 5.18 c -1.4,1.26 -2.66,2.24 -3.255,2.625 -0.945,0.7 -1.68,1.12 -2.485,1.26 0.42,1.015 1.015,2.87 1.225,3.605 1.365,-0.525 3.29,-0.665 19.005,-1.925 0.77,0.805 1.435,1.575 1.89,2.205 l 3.29,-2.24 c -1.295,-1.61 -3.745,-3.815 -5.915,-5.53 h 4.165 v -2.8 h 3.745 v -6.755 h -12.53 c -0.385,-1.05 -0.98,-2.275 -1.575,-3.29 z m 6.16,12.81 1.855,1.575 -10.255,0.665 c 1.435,-1.05 2.87,-2.205 4.13,-3.395 h 6.09 z m -14.63,-4.725 v -2.17 h 22.365 v 2.17 z"
       id="text27"
       class="cn"
       style="font-weight:600;font-size:35px;font-family:'Noto Sans CJK SC', 'Source Han Sans SC', 'Microsoft YaHei', 'PingFang SC', sans-serif;letter-spacing:2;text-anchor:middle;fill:#003b79"
       aria-label="上海市第六人民医院 放射介入科 医学影像人工智能实验室" />
    <path
       d="m 258.63251,948.705 v 26.46 h -12.6 v 4.235 h 32.025 v -4.235 h -14.91 V 963.02 h 12.425 v -4.235 h -12.425 v -10.08 z m 26.115,2.94 c 2.065,1.085 4.76,2.8 6.09,3.955 l 2.45,-3.185 c -1.4,-1.12 -4.2,-2.66 -6.23,-3.605 z m -1.995,9.975 c 1.96,1.05 4.55,2.695 5.705,3.885 l 2.415,-3.185 c -1.26,-1.12 -3.85,-2.625 -5.845,-3.535 z m 0.945,16.66 3.64,2.275 c 1.54,-3.43 3.15,-7.525 4.445,-11.27 l -3.22,-2.275 c -1.47,4.095 -3.465,8.54 -4.865,11.27 z m 17.605,-16.065 c 0.875,0.735 1.855,1.715 2.59,2.555 h -4.795 l 0.42,-3.325 h 2.975 z m -4.725,-13.965 c -1.19,3.885 -3.29,7.91 -5.6,10.43 0.98,0.525 2.765,1.645 3.605,2.31 0.42,-0.525 0.84,-1.12 1.26,-1.75 -0.14,1.75 -0.35,3.64 -0.595,5.53 h -3.64 v 3.78 h 3.115 c -0.385,2.73 -0.805,5.285 -1.225,7.315 h 14.595 c -0.14,0.525 -0.315,0.875 -0.49,1.085 -0.385,0.455 -0.7,0.56 -1.295,0.56 -0.7,0 -2.065,0 -3.605,-0.14 0.595,0.945 0.98,2.45 1.05,3.43 1.68,0.105 3.36,0.105 4.41,-0.07 1.19,-0.175 2.065,-0.49 2.87,-1.61 0.42,-0.56 0.805,-1.575 1.085,-3.255 h 2.59 v -3.57 h -2.135 l 0.28,-3.745 h 2.73 v -3.78 h -2.52 l 0.245,-5.145 c 0.035,-0.525 0.07,-1.785 0.07,-1.785 h -16.625 c 0.42,-0.735 0.84,-1.47 1.26,-2.275 h 16.625 v -3.78 h -14.91 c 0.315,-0.84 0.63,-1.68 0.91,-2.52 z m 3.78,21.175 c 1.015,0.805 2.17,1.925 3.01,2.87 h -5.25 l 0.49,-3.745 h 3.115 z m 3.85,-7.98 h 5.18 l -0.14,3.325 h -3.395 l 0.98,-0.665 c -0.595,-0.735 -1.645,-1.785 -2.625,-2.66 z m -0.84,7.105 h 5.67 c -0.105,1.47 -0.21,2.695 -0.35,3.745 h -3.325 l 1.12,-0.77 c -0.7,-0.84 -1.96,-2.03 -3.115,-2.975 z m 25.52,-11.445 c -1.96,2.52 -5.39,5.11 -8.575,6.685 0.98,0.7 2.59,2.24 3.36,3.08 3.115,-1.925 6.895,-5.11 9.345,-8.19 z m 10.5,2.17 c 3.115,2.24 7.035,5.565 8.75,7.77 l 3.605,-2.765 c -1.96,-2.205 -6.02,-5.32 -9.065,-7.385 z m -7.805,4.06 -3.78,1.155 c 1.365,3.15 3.045,5.845 5.145,8.12 -3.465,2.275 -7.805,3.78 -12.88,4.76 0.805,0.91 2.065,2.8 2.555,3.745 5.18,-1.26 9.695,-3.08 13.405,-5.705 3.535,2.66 7.98,4.48 13.51,5.53 0.525,-1.12 1.645,-2.87 2.555,-3.78 -5.18,-0.77 -9.415,-2.275 -12.775,-4.48 2.31,-2.275 4.165,-5.005 5.565,-8.295 l -4.235,-1.225 c -1.05,2.73 -2.59,5.04 -4.55,6.93 -1.925,-1.925 -3.43,-4.165 -4.515,-6.755 z m 0.98,-14.105 c 0.595,1.05 1.26,2.345 1.715,3.465 h -13.685 v 4.095 h 30.87 v -4.095 h -12.46 l 0.105,-0.035 c -0.455,-1.33 -1.61,-3.325 -2.555,-4.83 z m 24.575,2.8 c 2.065,1.82 4.865,4.375 6.125,6.02 l 3.01,-2.87 c -1.365,-1.575 -4.235,-3.99 -6.3,-5.67 z m 7.98,9.625 h -8.435 v 3.885 h 4.41 v 8.365 c -1.505,0.7 -3.15,1.995 -4.69,3.535 l 2.555,3.535 c 1.505,-2.135 3.185,-4.235 4.305,-4.235 0.735,0 1.89,1.085 3.29,1.89 2.45,1.4 5.32,1.785 9.66,1.785 3.745,0 9.59,-0.21 12.32,-0.35 0.07,-1.085 0.665,-2.975 1.12,-4.025 -3.675,0.49 -9.52,0.805 -13.3,0.805 -3.815,0 -6.965,-0.21 -9.24,-1.575 -0.84,-0.49 -1.47,-0.945 -1.995,-1.295 z m 3.36,-12.285 v 3.185 h 12.495 c -0.91,0.7 -1.89,1.365 -2.87,1.925 -1.61,-0.665 -3.255,-1.295 -4.62,-1.785 l -2.695,2.24 c 1.54,0.595 3.325,1.365 5.005,2.135 h -7.63 v 18.13 h 3.92 v -5.285 h 4.025 v 5.145 h 3.745 v -5.145 h 4.165 v 1.575 c 0,0.385 -0.14,0.525 -0.525,0.525 -0.385,0 -1.61,0.035 -2.695,-0.035 0.42,0.91 0.875,2.31 1.05,3.325 2.1,0 3.64,-0.035 4.725,-0.595 1.12,-0.56 1.435,-1.435 1.435,-3.15 v -14.49 h -4.69 l 0.07,-0.07 -1.855,-0.945 c 2.345,-1.435 4.62,-3.185 6.37,-4.9 l -2.485,-1.995 -0.805,0.21 z m 15.54,10.71 v 1.89 h -4.165 v -1.89 z m -11.935,4.83 h 4.025 v 1.96 h -4.025 z m 0,-2.94 v -1.89 h 4.025 v 1.89 z m 11.935,2.94 v 1.96 h -4.165 v -1.96 z m 23.63,-16.625 c -0.035,2.87 0,6.125 -0.35,9.415 h -12.81 v 4.34 h 12.11 c -1.4,6.055 -4.725,11.83 -12.775,15.435 1.225,0.91 2.485,2.415 3.15,3.535 7.455,-3.57 11.235,-9.03 13.16,-14.91 2.73,6.825 6.79,11.97 13.16,14.91 0.665,-1.19 2.065,-3.045 3.115,-3.955 -6.58,-2.66 -10.815,-8.19 -13.16,-15.015 h 12.39 v -4.34 h -13.825 c 0.35,-3.29 0.385,-6.51 0.42,-9.415 z m 37.14,17.605 v 2.205 h -13.37 v 3.85 h 13.37 v 4.41 c 0,0.455 -0.175,0.63 -0.875,0.63 -0.735,0.035 -3.325,0.035 -5.565,-0.07 0.63,1.12 1.435,2.87 1.715,4.06 2.975,0 5.18,-0.07 6.825,-0.665 1.68,-0.595 2.205,-1.68 2.205,-3.85 v -4.515 h 13.65 v -3.85 h -13.65 v -0.665 c 3.01,-1.435 5.845,-3.36 7.98,-5.32 l -2.66,-2.1 -0.875,0.21 h -15.855 v 3.64 h 11.095 c -1.26,0.77 -2.66,1.505 -3.99,2.03 z m -0.945,-16.555 c 0.875,1.365 1.785,3.115 2.275,4.48 h -5.915 l 1.33,-0.63 c -0.56,-1.33 -1.96,-3.22 -3.185,-4.585 l -3.57,1.575 c 0.875,1.085 1.82,2.45 2.45,3.64 h -5.355 v 7.735 h 3.92 v -4.025 h 22.435 v 4.025 h 4.13 v -7.735 h -5.11 c 0.98,-1.225 1.995,-2.625 2.94,-3.99 l -4.34,-1.33 c -0.7,1.61 -1.89,3.675 -3.01,5.32 h -4.585 l 2.065,-0.805 c -0.455,-1.435 -1.61,-3.535 -2.765,-5.075 z m 51.21,-0.455 c -1.82,2.765 -5.32,5.6 -8.295,7.21 1.085,0.77 2.31,2.03 2.975,2.905 3.36,-2.065 6.86,-5.145 9.275,-8.54 z m 0.875,9.52 c -1.995,2.94 -5.845,5.915 -9.065,7.63 1.05,0.77 2.275,2.03 2.905,2.975 3.57,-2.205 7.42,-5.46 10.01,-9.03 z m -21.805,9.905 h 7.84 v 1.82 h -7.84 z m -0.49,-12.565 h 8.785 v 1.33 h -8.785 z m 0,-3.71 h 8.785 v 1.295 h -8.785 z m -2.38,20.93 c -0.735,1.715 -1.925,3.605 -3.185,4.9 0.805,0.525 2.205,1.61 2.87,2.205 1.33,-1.47 2.835,-3.955 3.78,-6.055 z m 9.345,1.225 c 1.085,1.785 2.31,4.235 2.8,5.74 l 3.15,-1.505 -0.315,-0.735 c 0.98,0.84 2.17,2.17 2.765,3.185 4.62,-2.59 8.785,-6.475 11.41,-11.235 l -3.885,-1.435 c -2.135,3.955 -6.23,7.385 -10.36,9.345 -0.665,-1.4 -1.75,-3.22 -2.625,-4.655 z m -5.075,-14 0.49,1.015 h -7.91 v 3.185 h 19.67 V 961.2 h -7.28 c -0.245,-0.56 -0.525,-1.12 -0.84,-1.61 h 6.93 v -10.08 h -16.905 v 10.08 h 8.785 z m -5.285,5.355 v 7.28 h 5.67 v 4.515 c 0,0.315 -0.105,0.42 -0.49,0.42 -0.315,0 -1.435,0 -2.485,-0.035 0.49,0.945 0.98,2.31 1.155,3.36 1.89,0 3.36,0 4.48,-0.525 1.19,-0.525 1.435,-1.4 1.435,-3.115 v -4.62 h 6.055 v -7.28 z m 50.615,-11.69 h 5.215 c -0.455,0.665 -0.945,1.295 -1.435,1.82 h -5.285 c 0.525,-0.595 1.05,-1.19 1.505,-1.82 z m -9.17,-5.46 c -1.68,4.97 -4.55,9.975 -7.595,13.16 0.7,1.05 1.855,3.325 2.24,4.375 0.7,-0.735 1.365,-1.575 2.03,-2.45 v 17.605 h 3.99 v -23.975 l 0.07,-0.14 c 0.84,0.595 2.065,1.855 2.625,2.695 l 0.98,-0.77 v 4.97 h 4.34 c -1.61,1.155 -3.85,2.24 -6.93,3.15 0.735,0.7 1.75,1.82 2.24,2.485 2.835,-0.84 5.005,-1.855 6.65,-2.975 l 0.77,0.805 c -2.135,1.785 -6.09,3.535 -9.275,4.41 0.7,0.63 1.715,1.82 2.205,2.59 2.73,-0.98 6.055,-2.835 8.435,-4.725 l 0.455,1.19 c -2.66,2.45 -7.42,4.795 -11.585,5.985 0.77,0.7 1.855,2.03 2.415,2.905 3.255,-1.155 6.86,-3.15 9.73,-5.46 0,1.26 -0.245,2.275 -0.595,2.73 -0.35,0.63 -0.805,0.735 -1.435,0.735 -0.56,0 -1.33,-0.035 -2.205,-0.14 0.63,1.05 0.91,2.59 0.945,3.57 0.735,0.035 1.505,0.07 2.135,0.035 1.4,-0.035 2.485,-0.385 3.43,-1.54 1.365,-1.47 1.89,-5.075 0.945,-8.68 l 1.19,-0.49 c 1.085,3.64 2.835,6.86 5.39,8.68 0.595,-0.98 1.785,-2.38 2.625,-3.08 -2.31,-1.4 -4.025,-4.06 -5.005,-7 1.155,-0.595 2.275,-1.19 3.325,-1.785 l -2.765,-2.59 c -1.47,1.12 -3.78,2.485 -5.81,3.535 -0.7,-1.365 -1.645,-2.625 -2.905,-3.71 l 0.56,-0.63 h 10.08 v -8.19 h -6.37 c 0.91,-1.085 1.785,-2.24 2.485,-3.325 l -2.345,-1.785 -0.77,0.21 h -5.39 l 0.98,-1.715 -3.92,-0.77 c -1.435,2.8 -3.955,6.125 -7.63,8.645 1.26,-2.38 2.38,-4.865 3.255,-7.28 z m 8.05,10.29 h 4.48 c -0.14,0.665 -0.42,1.4 -0.91,2.17 h -3.57 z m 7.875,0 h 3.92 v 2.17 h -4.48 c 0.315,-0.77 0.455,-1.505 0.56,-2.17 z m 45.785,-8.82 h -30.065 v 30.17 h 30.8 v -3.99 h -5.565 l 2.485,-2.8 c -1.855,-1.68 -5.32,-3.955 -8.26,-5.74 h 9.66 v -3.64 h -9.625 v -3.36 h 8.155 v -3.535 h -14.35 c 0.35,-0.63 0.665,-1.295 0.91,-1.96 l -3.92,-0.98 c -0.945,2.555 -2.765,5.075 -4.865,6.65 0.945,0.49 2.66,1.435 3.465,2.1 0.7,-0.63 1.435,-1.4 2.1,-2.275 h 4.34 v 3.36 h -9.73 v 3.64 h 9.065 c -1.015,2.065 -3.465,4.025 -9.1,5.355 0.91,0.805 2.1,2.275 2.59,3.15 4.935,-1.47 7.805,-3.43 9.45,-5.6 2.8,1.82 5.845,4.06 7.49,5.635 h -20.86 v -22.19 h 25.83 z m 19.395,16.03 v 2.205 h -13.37 v 3.85 h 13.37 v 4.41 c 0,0.455 -0.175,0.63 -0.875,0.63 -0.735,0.035 -3.325,0.035 -5.565,-0.07 0.63,1.12 1.435,2.87 1.715,4.06 2.975,0 5.18,-0.07 6.825,-0.665 1.68,-0.595 2.205,-1.68 2.205,-3.85 v -4.515 h 13.65 v -3.85 h -13.65 v -0.665 c 3.01,-1.435 5.845,-3.36 7.98,-5.32 l -2.66,-2.1 -0.875,0.21 h -15.855 v 3.64 h 11.095 c -1.26,0.77 -2.66,1.505 -3.99,2.03 z m -0.945,-16.555 c 0.875,1.365 1.785,3.115 2.275,4.48 h -5.915 l 1.33,-0.63 c -0.56,-1.33 -1.96,-3.22 -3.185,-4.585 l -3.57,1.575 c 0.875,1.085 1.82,2.45 2.45,3.64 h -5.355 v 7.735 h 3.92 v -4.025 h 22.435 v 4.025 h 4.13 v -7.735 h -5.11 c 0.98,-1.225 1.995,-2.625 2.94,-3.99 l -4.34,-1.33 c -0.7,1.61 -1.89,3.675 -3.01,5.32 h -4.585 l 2.065,-0.805 c -0.455,-1.435 -1.61,-3.535 -2.765,-5.075 z m 48.97,4.585 v 8.645 h -3.955 v -8.645 z m -11.235,8.645 v 3.955 h 3.29 c -0.21,4.27 -1.085,9.205 -4.095,12.46 0.945,0.525 2.45,1.68 3.15,2.415 3.64,-3.85 4.655,-9.66 4.865,-14.875 h 4.025 v 14.63 h 3.99 v -14.63 h 3.675 v -3.955 h -3.675 v -8.645 h 2.975 V 950 h -17.29 v 3.92 h 2.45 v 8.645 z m -13.545,-12.635 v 3.78 h 3.745 c -0.91,4.585 -2.31,8.855 -4.48,11.76 0.56,1.225 1.33,3.885 1.47,4.97 0.49,-0.595 0.945,-1.225 1.4,-1.89 v 10.92 h 3.465 v -2.59 h 6.755 v -16.17 h -6.58 c 0.77,-2.24 1.4,-4.62 1.89,-7 h 5.11 v -3.78 z m 5.6,14.49 h 3.185 v 8.785 h -3.185 z m 42.985,-8.47 c -2.905,2.135 -6.965,3.92 -10.08,4.935 l 2.66,3.045 c 3.465,-1.295 7.665,-3.57 10.745,-6.02 z m 5.88,2.17 c 3.43,1.61 7.84,4.13 9.94,5.81 l 3.08,-2.52 c -2.345,-1.75 -6.895,-4.06 -10.185,-5.495 z m -6.195,3.885 v 3.045 h -8.54 v 3.885 h 8.365 c -0.63,3.115 -3.08,6.405 -11.235,8.61 1.015,0.91 2.275,2.415 2.905,3.5 9.695,-2.695 12.25,-7.525 12.705,-12.11 h 5.11 v 6.335 c 0,4.095 1.05,5.285 4.41,5.285 0.665,0 2.415,0 3.115,0 3.045,0 4.095,-1.54 4.48,-7.28 -1.155,-0.28 -2.975,-1.015 -3.85,-1.715 -0.14,4.34 -0.28,5.005 -1.05,5.005 -0.385,0 -1.61,0 -1.925,0 -0.77,0 -0.84,-0.175 -0.84,-1.33 V 965.05 h -9.345 v -3.045 z m 1.365,-13.02 c 0.385,0.84 0.77,1.82 1.12,2.73 h -13.02 v 6.965 h 4.235 v -3.325 h 21.875 v 2.975 h 4.445 v -6.615 h -12.39 c -0.42,-1.155 -1.155,-2.695 -1.75,-3.815 z m 41.48,2.485 v 10.955 c 0,5.075 -0.42,11.585 -5.285,15.96 0.91,0.56 2.66,2.065 3.325,2.87 4.9,-4.375 6.055,-11.585 6.195,-17.22 h 3.675 v 16.87 h 4.165 v -16.87 h 3.22 v -4.06 h -11.025 v -5.32 c 3.64,-0.525 7.49,-1.26 10.57,-2.31 l -2.73,-3.675 c -3.08,1.225 -7.805,2.24 -12.11,2.8 z m -11.48,13.615 v -0.945 -3.325 h 4.97 v 4.27 z m 7.805,-16.17 c -3.045,1.12 -7.77,1.995 -11.97,2.485 v 12.74 c 0,4.585 -0.14,10.5 -2.415,14.525 0.945,0.49 2.73,1.89 3.43,2.66 1.995,-3.29 2.73,-8.12 3.01,-12.495 h 9.17 v -11.76 h -9.03 v -2.485 c 3.605,-0.42 7.455,-1.085 10.465,-2.1 z m 46.73498,-0.595 c -0.14,5.95 0.525,21.7 -13.755,29.33 1.4,0.945 2.765,2.31 3.5,3.43 7.315,-4.305 11.025,-10.675 12.95,-16.87 1.995,6.055 5.915,12.95 13.72,16.66 0.595,-1.19 1.785,-2.625 3.08,-3.64 -12.215,-5.46 -14.42,-18.585 -14.91,-23.345 0.14,-2.17 0.21,-4.06 0.245,-5.565 z m 23.83997,26.145 v 4.235 h 31.99 v -4.235 h -13.79 V 956.3 h 11.83 v -4.41 h -28.105 v 4.41 h 11.48 v 18.165 z m 58.07,-19.95 h 5.32 v 5.95 h -5.32 z m -3.92,-3.675 v 13.335 h 13.405 V 950.84 Z m -8.435,23.73 h 14.525 v 2.03 h -14.525 z m 0,-3.045 v -1.96 h 14.525 v 1.96 z m -4.095,-5.25 v 14.84 h 4.095 v -1.155 h 14.525 v 1.12 h 4.305 v -14.805 z m 1.995,-12.11 v 1.505 l -0.035,0.77 h -3.325 c 0.56,-0.665 1.085,-1.435 1.61,-2.275 z m -3.185,-6.125 c -0.7,2.625 -2.03,5.18 -3.85,6.86 0.7,0.315 1.855,0.98 2.695,1.54 h -2.38 v 3.29 h 5.845 c -0.91,1.715 -2.695,3.465 -6.265,4.83 0.91,0.7 2.1,1.96 2.66,2.8 3.185,-1.47 5.215,-3.22 6.475,-5.04 1.575,1.12 3.5,2.555 4.515,3.43 l 2.975,-2.66 c -0.91,-0.63 -4.41,-2.625 -5.915,-3.36 h 5.81 v -3.29 h -5.425 l 0.035,-0.7 v -1.575 h 4.55 v -3.255 h -8.715 c 0.28,-0.7 0.525,-1.4 0.7,-2.1 z m 44.245,16.31 v 1.855 h -5.215 v -1.855 z m -9.1,-3.43 v 20.16 h 3.885 v -6.615 h 5.215 v 2.345 c 0,0.42 -0.105,0.525 -0.56,0.525 -0.455,0.035 -1.82,0.07 -3.08,0 0.525,0.98 1.155,2.625 1.365,3.71 2.1,0 3.71,-0.035 4.9,-0.7 1.19,-0.595 1.54,-1.645 1.54,-3.465 v -15.96 z m 3.885,8.4 h 5.215 v 2.03 h -5.215 z m 22.645,-18.865 c -1.68,0.98 -4.025,2.065 -6.405,2.975 v -5.04 h -4.13 v 10.57 c 0,3.85 0.98,5.04 5.075,5.04 0.84,0 3.955,0 4.83,0 3.22,0 4.34,-1.26 4.795,-5.775 -1.155,-0.245 -2.835,-0.875 -3.675,-1.54 -0.14,3.115 -0.385,3.64 -1.505,3.64 -0.735,0 -3.29,0 -3.85,0 -1.33,0 -1.54,-0.175 -1.54,-1.4 v -2.1 c 3.08,-0.875 6.37,-2.03 9.065,-3.325 z m 0.245,15.75 c -1.68,1.12 -4.095,2.31 -6.58,3.29 v -4.725 h -4.165 v 11.06 c 0,3.85 1.05,5.075 5.145,5.075 0.84,0 4.06,0 4.935,0 3.36,0 4.48,-1.4 4.935,-6.335 -1.155,-0.28 -2.835,-0.91 -3.71,-1.575 -0.175,3.605 -0.385,4.235 -1.61,4.235 -0.735,0 -3.36,0 -3.955,0 -1.33,0 -1.575,-0.175 -1.575,-1.435 v -2.8 c 3.185,-0.98 6.65,-2.24 9.345,-3.71 z m -26.88,-6.965 c 0.91,-0.35 2.31,-0.595 10.745,-1.33 0.245,0.63 0.455,1.225 0.595,1.75 l 3.815,-1.505 c -0.595,-2.205 -2.345,-5.355 -3.99,-7.735 l -3.57,1.33 c 0.595,0.91 1.19,1.96 1.715,3.01 l -5.145,0.35 c 1.365,-1.715 2.765,-3.78 3.78,-5.775 l -4.48,-1.155 c -0.98,2.555 -2.625,5.075 -3.185,5.74 -0.56,0.735 -1.12,1.26 -1.68,1.4 0.49,1.085 1.19,3.045 1.4,3.92 z m 36.475,-9.625 v 31.535 h 4.305 v -1.225 h 21.105 v 1.225 h 4.515 v -31.535 z m 4.305,26.53 v -22.68 h 21.105 v 22.68 z m 11.55,-21.63 v 3.78 h -10.045 v 3.71 h 8.435 c -2.66,3.22 -6.195,5.88 -9.31,7.525 0.875,0.735 2.065,2.065 2.59,2.835 2.73,-1.435 5.74,-3.605 8.33,-6.195 v 4.725 c 0,0.385 -0.14,0.49 -0.56,0.49 -0.455,0.035 -1.855,0.035 -3.15,0 0.525,1.015 1.155,2.625 1.33,3.745 2.17,0 3.745,-0.105 4.935,-0.7 1.19,-0.63 1.505,-1.645 1.505,-3.5 v -8.925 h 4.235 v -3.71 h -4.235 v -3.78 z m 21.495,-4.865 v 31.36 h 3.99 v -27.615 h 3.815 c -0.665,2.31 -1.575,5.215 -2.415,7.315 2.415,2.38 3.045,4.655 3.045,6.265 0,1.015 -0.21,1.715 -0.7,2.03 -0.315,0.175 -0.7,0.245 -1.12,0.28 -0.49,0 -1.05,0 -1.785,-0.035 0.665,1.05 1.015,2.765 1.05,3.885 0.91,0.035 1.855,0 2.59,-0.105 0.84,-0.105 1.575,-0.385 2.205,-0.805 1.225,-0.84 1.785,-2.415 1.785,-4.76 0,-2.03 -0.49,-4.515 -3.045,-7.28 1.19,-2.625 2.485,-6.02 3.535,-8.96 l -2.975,-1.75 -0.63,0.175 z m 31.5,28.35 c -7.875,-5.46 -8.96,-16.135 -9.31,-19.67 0.21,-3.255 0.21,-6.615 0.245,-9.905 h -4.305 c -0.07,11.48 0.315,23.135 -9.38,29.505 1.19,0.77 2.52,2.135 3.185,3.22 4.48,-3.15 7.035,-7.385 8.505,-12.215 1.4,4.445 3.78,9.135 7.98,12.25 0.665,-1.085 1.89,-2.38 3.08,-3.185 z"
       id="text28"
       class="cn"
       style="font-weight:600;font-size:35px;font-family:'Noto Sans CJK SC', 'Source Han Sans SC', 'Microsoft YaHei', 'PingFang SC', sans-serif;letter-spacing:2;text-anchor:middle;fill:#003b79"
       aria-label="上海交通大学影像医学研究所 人工智能团队" />
  </g>
</svg>
