<?xml version="1.0" encoding="UTF-8"?>
<svg xmlns="http://www.w3.org/2000/svg" viewBox="400 120 400 400" width="400" height="400" role="img" aria-label="AI4Rad emblem"><defs id="defs1">
    <style id="style1">
      .latin { font-family: "Inter Display", "Inter", "Arial", sans-serif; font-weight: 800; }
      .latin-medium { font-family: "Inter Display", "Inter", "Arial", sans-serif; font-weight: 700; }
      .cn { font-family: "Noto Sans CJK SC", "Source Han Sans SC", "Microsoft YaHei", "PingFang SC", sans-serif; font-weight: 600; }
      .fine { fill: none; stroke: #A6B4C7; stroke-width: 4.1; stroke-linecap: round; stroke-linejoin: round; opacity: .72; }
      .fine2 { fill: none; stroke: #A6B4C7; stroke-width: 3.2; stroke-linecap: round; stroke-linejoin: round; opacity: .62; }
    </style>
    <clipPath id="iconClip">
      <circle cx="600" cy="320" r="200" id="circle1" />
    </clipPath>
  </defs>
  
  <g id="symbol" transform="translate(0,0)">
    
    <path d="M 386.76 274.68 A 218.00 218.00 0 0 1 558.40 106.01" fill="none" stroke="#009B8F" stroke-width="13" stroke-linecap="round" id="path1" />
    <path d="M 641.60 106.01 A 218.00 218.00 0 0 1 813.24 274.68" fill="none" stroke="#00529B" stroke-width="13" stroke-linecap="round" id="path2" />
    <path d="M 813.24 365.32 A 218.00 218.00 0 0 1 641.60 533.99" fill="none" stroke="#00529B" stroke-width="13" stroke-linecap="round" id="path3" />
    <path d="M 558.40 533.99 A 218.00 218.00 0 0 1 386.76 365.32" fill="none" stroke="#009B8F" stroke-width="13" stroke-linecap="round" id="path4" />
    <g clip-path="url(#iconClip)" id="g16">
      
      <path d="M 600 128 L 600 512" stroke="#A6B4C7" stroke-width="3.4" opacity=".55" stroke-linecap="round" id="path5" />
      
      <g id="brain" class="fine">
        <path d="M 545 184                  C 510 150, 458 165, 448 210                  C 408 213, 385 244, 390 284                  C 356 305, 351 355, 381 382                  C 371 427, 410 466, 456 459                  C 486 503, 556 482, 556 430                  C 587 405, 584 354, 548 333                  C 574 296, 566 225, 545 184 Z" id="path6" />
        <path d="M 448 210 C 462 244, 500 235, 509 263" id="path7" />
        <path d="M 390 284 C 429 276, 452 300, 456 333" id="path8" />
        <path d="M 381 382 C 420 372, 455 391, 467 425" id="path9" />
        <path d="M 456 459 C 465 426, 496 418, 530 434" id="path10" />
        <path d="M 545 184 C 536 225, 559 244, 588 245" id="path11" />
        <path d="M 509 263 C 545 271, 556 297, 548 333" id="path12" />
        <path d="M 456 333 C 493 331, 516 355, 514 392" id="path13" />
        <path d="M 467 425 C 500 416, 533 389, 552 359" id="path14" />
      </g>
      
      <g id="bone" class="fine">
        <path d="M 746 160                  C 725 159, 715 176, 724 193                  C 732 209, 753 211, 762 196                  C 773 178, 796 180, 806 198                  C 821 226, 789 246, 762 232                  C 750 227, 738 232, 734 244                  L 734 397                  C 734 413, 743 422, 759 424                  C 785 429, 796 457, 777 476                  C 758 495, 729 485, 728 458                  C 727 437, 698 438, 695 458                  C 692 484, 660 491, 644 471                  C 628 450, 643 424, 670 423                  C 688 422, 697 413, 697 396                  L 697 244                  C 697 229, 688 225, 674 230                  C 646 239, 620 214, 637 188                  C 650 169, 673 168, 685 186                  C 697 205, 724 201, 724 178                  C 724 166, 732 160, 746 160 Z" id="path15" />
        <path d="M 715 250 L 715 392" class="fine2" id="path16" />
      </g>
    </g>
    
    </g>
  
  </svg>